<svg width="150" height="150" viewBox="0 0 150 150" fill="none" xmlns="http://www.w3.org/2000/svg">
<rect width="150" height="150" rx="75" fill="#5E63B6"/>
<path d="M75 42.9166C92.7196 42.9166 107.083 57.2803 107.083 75C107.083 92.7196 92.7196 107.083 75 107.083C57.2804 107.083 42.9167 92.7196 42.9167 75C42.9167 57.2803 57.2804 42.9166 75 42.9166ZM87.8462 77.8169C86.7393 76.1325 85.9404 74.9198 82.8989 75.401C77.156 76.3122 76.5175 77.3164 76.2448 78.9719L76.1678 79.4724L76.0876 80.005C75.7764 82.1963 75.786 83.024 76.7935 84.0795C80.852 88.3402 83.2839 91.4106 84.0218 93.2072C84.3812 94.0831 85.3052 96.7364 84.6699 99.3608C88.5634 97.808 92.0294 95.3473 94.7794 92.1838C95.1323 90.9839 95.389 89.4888 95.389 87.6793V87.3424C95.389 84.3843 95.389 83.0336 93.2971 81.8369C92.6257 81.454 91.935 81.1059 91.2278 80.7942C90.0503 80.2584 89.2707 79.9087 88.2183 78.3687C88.09 78.1869 87.9659 78.003 87.8462 77.8169ZM75 48.7975C67.5663 48.7975 60.8513 51.8968 56.0837 56.8697C56.6515 57.2643 57.1456 57.8193 57.4857 58.5829C58.1402 60.0491 58.1402 61.5602 58.1402 62.8981C58.1402 63.9505 58.1402 64.9515 58.4771 65.6733C58.9391 66.6615 60.9347 67.085 62.696 67.4508C63.3281 67.5855 63.9762 67.7202 64.5665 67.8839C66.1899 68.333 67.4476 69.7928 68.4518 70.9639C68.8689 71.4483 69.4881 72.1638 69.7993 72.3435C69.9597 72.228 70.4763 71.6665 70.7297 70.7457C70.9286 70.0399 70.8709 69.4175 70.5853 69.0774C68.7887 66.9599 68.8881 62.8853 69.4432 61.3806C70.3158 59.0096 73.0429 59.1861 75.0385 59.3144C75.7828 59.3625 76.4823 59.4107 77.0084 59.3433C79.004 59.093 79.62 56.0548 80.0531 55.4612C80.99 54.1779 83.8582 52.2432 85.6356 51.0498C82.2889 49.5576 78.6644 48.79 75 48.7975Z" fill="#DBDBDB"/>
</svg>
