<svg width="554" height="62" viewBox="0 0 554 62" fill="none" xmlns="http://www.w3.org/2000/svg">
<path d="M510.75 20.335C536.902 23.3409 552 26.8895 552 30.6886C552 41.5383 428.882 50.335 277 50.335C125.118 50.335 2 41.5383 2 30.6886C2 26.8895 17.0975 23.3409 43.25 20.335" stroke="#DBDBDB" stroke-width="4" stroke-linecap="round" stroke-linejoin="round"/>
<path d="M270 42L282.5 50.7129L270 59.4257" stroke="#DBDBDB" stroke-width="4" stroke-linecap="round" stroke-linejoin="round"/>
<path d="M277 27C280.866 27 284 23.866 284 20C284 16.134 280.866 13 277 13C273.134 13 270 16.134 270 20C270 23.866 273.134 27 277 27Z" stroke="#DBDBDB" stroke-width="4" stroke-linecap="round" stroke-linejoin="round"/>
<path d="M276.5 2V5.5M276.5 33.5V37M264.127 7.1275L266.595 9.595M286.405 29.405L288.872 31.8725M259 19.5H262.5M290.5 19.5H294M266.595 29.405L264.127 31.8725M288.872 7.1275L286.405 9.595" stroke="#DBDBDB" stroke-width="4" stroke-linecap="round" stroke-linejoin="round"/>
</svg>
