<svg width="154" height="30" viewBox="0 0 154 30" fill="none" xmlns="http://www.w3.org/2000/svg">
<path d="M0.585786 13.3137C-0.195262 14.0947 -0.195262 15.3611 0.585786 16.1421L13.3137 28.87C14.0948 29.6511 15.3611 29.6511 16.1421 28.87C16.9232 28.089 16.9232 26.8227 16.1421 26.0416L4.82843 14.7279L16.1421 3.4142C16.9232 2.63315 16.9232 1.36682 16.1421 0.58577C15.3611 -0.195279 14.0948 -0.195279 13.3137 0.58577L0.585786 13.3137ZM153.414 16.1421C154.195 15.3611 154.195 14.0947 153.414 13.3137L140.686 0.58577C139.905 -0.195279 138.639 -0.195279 137.858 0.58577C137.077 1.36682 137.077 2.63315 137.858 3.4142L149.172 14.7279L137.858 26.0416C137.077 26.8227 137.077 28.089 137.858 28.87C138.639 29.6511 139.905 29.6511 140.686 28.87L153.414 16.1421ZM2 14.7279V16.7279H152V14.7279V12.7279H2V14.7279Z" fill="#DBDBDB"/>
</svg>
