<svg width="85" height="85" viewBox="0 0 85 85" fill="none" xmlns="http://www.w3.org/2000/svg">
<g filter="url(#filter0_d_1_171)">
<path d="M42.0833 10C59.803 10 74.1667 24.3637 74.1667 42.0833C74.1667 59.803 59.803 74.1667 42.0833 74.1667C24.3637 74.1667 10 59.803 10 42.0833C10 24.3637 24.3637 10 42.0833 10ZM54.9295 44.9002C53.8226 43.2159 53.0238 42.0031 49.9823 42.4844C44.2393 43.3955 43.6009 44.3997 43.3282 46.0552L43.2512 46.5557L43.171 47.0883C42.8597 49.2796 42.8694 50.1074 43.8768 51.1629C47.9353 55.4236 50.3673 58.494 51.1052 60.2906C51.4645 61.1665 52.3885 63.8198 51.7533 66.4442C55.6467 64.8914 59.1128 62.4307 61.8627 59.2672C62.2156 58.0673 62.4723 56.5722 62.4723 54.7627V54.4258C62.4723 51.4677 62.4723 50.117 60.3805 48.9203C59.7091 48.5373 59.0184 48.1893 58.3111 47.8776C57.1336 47.3418 56.354 46.9921 55.3017 45.4521C55.1733 45.2703 55.0493 45.0863 54.9295 44.9002ZM42.0833 15.8809C34.6496 15.8809 27.9346 18.9801 23.167 23.953C23.7349 24.3477 24.229 24.9027 24.569 25.6663C25.2235 27.1325 25.2235 28.6436 25.2235 29.9815C25.2235 31.0338 25.2235 32.0348 25.5604 32.7567C26.0224 33.7449 28.018 34.1684 29.7794 34.5341C30.4114 34.6689 31.0595 34.8036 31.6498 34.9672C33.2733 35.4164 34.5309 36.8762 35.5351 38.0472C35.9522 38.5317 36.5714 39.2472 36.8826 39.4268C37.043 39.3113 37.5596 38.7499 37.813 37.8291C38.012 37.1232 37.9542 36.5008 37.6687 36.1607C35.872 34.0432 35.9715 29.9687 36.5265 28.464C37.3992 26.093 40.1263 26.2695 42.1218 26.3978C42.8662 26.4459 43.5656 26.494 44.0918 26.4267C46.0873 26.1764 46.7033 23.1381 47.1365 22.5446C48.0733 21.2612 50.9415 19.3266 52.719 18.1331C49.3722 16.6409 45.7477 15.8734 42.0833 15.8809Z" fill="url(#paint0_linear_1_171)"/>
</g>
<defs>
<filter id="filter0_d_1_171" x="0" y="0" width="84.1666" height="84.1667" filterUnits="userSpaceOnUse" color-interpolation-filters="sRGB">
<feFlood flood-opacity="0" result="BackgroundImageFix"/>
<feColorMatrix in="SourceAlpha" type="matrix" values="0 0 0 0 0 0 0 0 0 0 0 0 0 0 0 0 0 0 127 0" result="hardAlpha"/>
<feOffset/>
<feGaussianBlur stdDeviation="5"/>
<feComposite in2="hardAlpha" operator="out"/>
<feColorMatrix type="matrix" values="0 0 0 0 1 0 0 0 0 1 0 0 0 0 1 0 0 0 0.25 0"/>
<feBlend mode="normal" in2="BackgroundImageFix" result="effect1_dropShadow_1_171"/>
<feBlend mode="normal" in="SourceGraphic" in2="effect1_dropShadow_1_171" result="shape"/>
</filter>
<linearGradient id="paint0_linear_1_171" x1="42.0833" y1="23.2344" x2="42.0834" y2="67.75" gradientUnits="userSpaceOnUse">
<stop stop-color="#E3E9F6"/>
<stop offset="1" stop-color="#98A7D3"/>
</linearGradient>
</defs>
</svg>
