<svg width="60" height="60" viewBox="0 0 60 60" fill="none" xmlns="http://www.w3.org/2000/svg">
<path d="M30 2C45.4644 2 58 14.5356 58 30C58 45.4644 45.4644 58 30 58C14.5356 58 2 45.4644 2 30C2 14.5356 14.5356 2 30 2ZM41.4453 29.0537C40.2205 28.2803 38.7763 28.1299 37.0732 28.3994H37.0723C34.3838 28.826 32.5248 29.3167 31.2939 30.0889C30.6167 30.5137 30.0958 31.0417 29.7363 31.6943C29.3959 32.3125 29.2663 32.9283 29.1904 33.3887L29.1885 33.3994L29.1875 33.4102L29.1152 33.8779L29.1143 33.8838L29.0391 34.3818L29.0381 34.3906L29.0371 34.3984C28.8973 35.3831 28.7736 36.3704 28.9053 37.2725C29.0614 38.3416 29.5398 39.1459 30.2285 39.8682V39.8691C32.1028 41.8368 33.5758 43.5027 34.6533 44.8633C35.6202 46.0842 36.1961 46.9693 36.4814 47.5527L36.5859 47.7852C36.8858 48.5165 37.5363 50.4963 37.0977 52.3086L36.1875 56.0703L39.7832 54.6367C43.7197 53.0667 47.2245 50.5784 50.0049 47.3799L50.291 47.0508L50.4141 46.6328C50.7977 45.3286 51.0654 43.7403 51.0654 41.8564V41.541C51.0654 40.2753 51.085 38.9179 50.7334 37.7656C50.31 36.3781 49.4235 35.413 48.1025 34.6572L48.0996 34.6553C47.584 34.3612 47.0572 34.0873 46.5205 33.834L45.9805 33.5879C45.4127 33.3294 45.1511 33.2025 44.9053 33.0225C44.687 32.8626 44.4087 32.6024 44.0117 32.0215L44.0029 32.0088L43.9941 31.9971L43.6934 31.5518L43.6836 31.5361L43.2949 30.9502C42.8597 30.3174 42.2741 29.5771 41.4453 29.0537ZM29.9961 3.49902C22.4792 3.50011 15.6868 6.63695 10.8682 11.6631L9.24805 13.3535L11.1709 14.6895C11.4134 14.858 11.6321 15.0952 11.7959 15.4629L11.7969 15.4639C12.2106 16.3906 12.2353 17.3853 12.2354 18.6836C12.2354 19.1548 12.2335 19.7287 12.2822 20.2754C12.3307 20.8189 12.4386 21.485 12.7373 22.125L12.7383 22.126C13.0567 22.807 13.5736 23.2582 14.0156 23.5498C14.4631 23.8449 14.9543 24.0562 15.3994 24.2139C16.2737 24.5235 17.2866 24.7321 18.0781 24.8965V24.8975C18.6926 25.0285 19.2297 25.1403 19.71 25.2734H19.7109C20.0677 25.3722 20.4762 25.6104 20.9541 26.0322C21.435 26.4567 21.8771 26.9671 22.3584 27.5283L22.3613 27.5312C22.5531 27.754 22.8224 28.0659 23.0859 28.3467C23.2774 28.5506 23.6914 28.9909 24.1367 29.248L25.2568 29.8945L26.3057 29.1387C26.6447 28.8945 26.9587 28.5268 27.2012 28.165C27.4738 27.7582 27.7528 27.2168 27.9355 26.5527L27.9336 26.5518C28.1838 25.6549 28.3034 24.2478 27.4033 23.1758L27.3975 23.168L27.3135 23.0625C26.9023 22.5107 26.605 21.5909 26.5059 20.4717C26.4002 19.2778 26.5565 18.2935 26.6807 17.957V17.9561C26.7904 17.6578 26.9521 17.4904 27.4688 17.373C27.9484 17.2641 28.5205 17.2575 29.1963 17.2881L29.9072 17.3291C30.518 17.3686 31.3983 17.4359 32.126 17.3438L32.127 17.3447C34.1037 17.0968 35.1381 15.5063 35.6172 14.6006C35.8858 14.0928 36.0884 13.5882 36.2266 13.2451L36.3916 12.8457C36.6651 12.5072 37.3008 11.9415 38.2412 11.2354C39.1806 10.5299 40.2244 9.82646 41.0596 9.26562L44.0605 7.25L40.7598 5.77832C37.374 4.26874 33.707 3.49203 30 3.49902H29.9961Z" stroke="#DBDBDB" stroke-width="4"/>
</svg>
