<svg width="40" height="40" viewBox="0 0 40 40" fill="none" xmlns="http://www.w3.org/2000/svg">
<path d="M10 23.3333C10 24.7778 10.2917 26.1458 10.875 27.4375C11.4583 28.7292 12.2917 29.8611 13.375 30.8333C13.3472 30.6944 13.3333 30.5694 13.3333 30.4583V30.0833C13.3333 29.1944 13.5 28.3611 13.8333 27.5833C14.1667 26.8056 14.6528 26.0972 15.2917 25.4583L20 20.8333L24.7083 25.4583C25.3472 26.0972 25.8333 26.8056 26.1667 27.5833C26.5 28.3611 26.6667 29.1944 26.6667 30.0833V30.4583C26.6667 30.5694 26.6528 30.6944 26.625 30.8333C27.7083 29.8611 28.5417 28.7292 29.125 27.4375C29.7083 26.1458 30 24.7778 30 23.3333C30 21.9444 29.7431 20.6319 29.2292 19.3958C28.7153 18.1597 27.9722 17.0556 27 16.0833C26.4444 16.4444 25.8611 16.7153 25.25 16.8958C24.6389 17.0764 24.0139 17.1667 23.375 17.1667C21.6528 17.1667 20.1597 16.5972 18.8958 15.4583C17.6319 14.3194 16.9028 12.9167 16.7083 11.25C15.625 12.1667 14.6667 13.1181 13.8333 14.1042C13 15.0903 12.2986 16.0903 11.7292 17.1042C11.1597 18.1181 10.7292 19.1528 10.4375 20.2083C10.1458 21.2639 10 22.3056 10 23.3333ZM20 25.5L17.625 27.8333C17.3194 28.1389 17.0833 28.4861 16.9167 28.875C16.75 29.2639 16.6667 29.6667 16.6667 30.0833C16.6667 30.9722 16.9931 31.7361 17.6458 32.375C18.2986 33.0139 19.0833 33.3333 20 33.3333C20.9167 33.3333 21.7014 33.0139 22.3542 32.375C23.0069 31.7361 23.3333 30.9722 23.3333 30.0833C23.3333 29.6389 23.25 29.2292 23.0833 28.8542C22.9167 28.4792 22.6806 28.1389 22.375 27.8333L20 25.5ZM20 5V10.5C20 11.4444 20.3264 12.2361 20.9792 12.875C21.6319 13.5139 22.4306 13.8333 23.375 13.8333C23.875 13.8333 24.3403 13.7292 24.7708 13.5208C25.2014 13.3125 25.5833 13 25.9167 12.5833L26.6667 11.6667C28.7222 12.8333 30.3472 14.4583 31.5417 16.5417C32.7361 18.625 33.3333 20.8889 33.3333 23.3333C33.3333 27.0556 32.0417 30.2083 29.4583 32.7917C26.875 35.375 23.7222 36.6667 20 36.6667C16.2778 36.6667 13.125 35.375 10.5417 32.7917C7.95833 30.2083 6.66667 27.0556 6.66667 23.3333C6.66667 19.75 7.86806 16.3472 10.2708 13.125C12.6736 9.90278 15.9167 7.19444 20 5Z" fill="#DBDBDB"/>
</svg>
