<svg width="21" height="42" viewBox="0 0 21 42" fill="none" xmlns="http://www.w3.org/2000/svg">
<path d="M1.00031 1V6.2549M20 1V6.2549M10.4997 1V15.451M10.4997 15.451C11.7987 15.43 13.4484 12.9864 15.8515 10.204M10.4997 15.451C9.20077 15.43 8.38241 13.6433 5.45971 10.204M10.5 41C13.0196 41 15.4359 39.9877 17.2175 38.1859C18.9991 36.3841 20 33.9403 20 31.3922C20 28.844 18.9991 26.4002 17.2175 24.5984C15.4359 22.7966 13.0196 21.7843 10.5 21.7843C7.98044 21.7843 5.56408 22.7966 3.78249 24.5984C2.00089 26.4002 1 28.844 1 31.3922C1 33.9403 2.00089 36.3841 3.78249 38.1859C5.56408 39.9877 7.98044 41 10.5 41Z" stroke="#B0A0F9" stroke-width="2" stroke-linecap="round" stroke-linejoin="round"/>
</svg>
