<svg width="25" height="48" viewBox="0 0 25 48" fill="none" xmlns="http://www.w3.org/2000/svg">
<path d="M2.00034 2V7.69662M22.7273 2V7.69662M12.3634 2V17.6657M12.3634 17.6657C13.7804 17.6429 15.5801 14.994 18.2017 11.9776M12.3634 17.6657C10.9463 17.6429 10.0535 15.7061 6.86513 11.9776M12.3636 45.3623C15.1122 45.3623 17.7483 44.265 19.6918 42.3117C21.6354 40.3584 22.7273 37.7092 22.7273 34.9468C22.7273 32.1845 21.6354 29.5353 19.6918 27.582C17.7483 25.6287 15.1122 24.5314 12.3636 24.5314C9.61503 24.5314 6.979 25.6287 5.03544 27.582C3.09188 29.5353 2 32.1845 2 34.9468C2 37.7092 3.09188 40.3584 5.03544 42.3117C6.979 44.265 9.61503 45.3623 12.3636 45.3623Z" stroke="#DBDBDB" stroke-width="4" stroke-linecap="round" stroke-linejoin="round"/>
</svg>
