<svg width="24" height="44" viewBox="0 0 24 44" fill="none" xmlns="http://www.w3.org/2000/svg">
<path d="M21.0457 16.3948V11.1603M2.00031 16.3948L2.00031 11.1603M11.5234 16.3948L11.5234 2M11.5234 2C10.2213 2.02094 8.56765 4.45497 6.15876 7.22662M11.5234 2C12.8255 2.02094 13.6459 3.80066 16.5756 7.22662M11.5229 41.8445C14.0485 41.8445 16.4707 40.8361 18.2566 39.0413C20.0424 37.2465 21.0457 34.8122 21.0457 32.274C21.0457 29.7357 20.0424 27.3014 18.2566 25.5066C16.4707 23.7118 14.0485 22.7035 11.5229 22.7035C8.99725 22.7035 6.57507 23.7118 4.78918 25.5066C3.0033 27.3014 2 29.7357 2 32.274C2 34.8122 3.0033 37.2465 4.78918 39.0413C6.57507 40.8361 8.99725 41.8445 11.5229 41.8445Z" stroke="#DBDBDB" stroke-width="4" stroke-linecap="round" stroke-linejoin="round"/>
</svg>
