<svg width="40" height="40" viewBox="0 0 40 40" fill="none" xmlns="http://www.w3.org/2000/svg">
<path d="M18.3333 36.6667V29.75L12.9167 35.0834L10.5833 32.75L18.3333 25V21.6667H15L7.25001 29.4167L4.91668 27.0834L10.25 21.6667H3.33334V18.3334H10.25L4.91668 12.9167L7.25001 10.5834L15 18.3334H18.3333V15L10.5833 7.25004L12.9167 4.91671L18.3333 10.25V3.33337H21.6667V10.25L27.0833 4.91671L29.4167 7.25004L21.6667 15V18.3334H25L32.75 10.5834L35.0833 12.9167L29.75 18.3334H36.6667V21.6667H29.75L35.0833 27.0834L32.75 29.4167L25 21.6667H21.6667V25L29.4167 32.75L27.0833 35.0834L21.6667 29.75V36.6667H18.3333Z" fill="#DBDBDB"/>
</svg>
