<svg width="100" height="130" viewBox="0 0 100 130" fill="none" xmlns="http://www.w3.org/2000/svg">
<rect y="15" width="100" height="100" rx="50" fill="#5E63B6"/>
<path d="M60.984 61.368C54.36 66.84 50.712 69.24 50.712 78.456V82.68H44.856V78.648C44.856 69.72 46.296 66.168 53.784 60.12C59.928 55.128 63.768 52.824 63.768 46.776C63.768 39.96 58.68 35.928 50.328 35.928C41.496 35.928 35.736 40.824 35.736 48.888V51.48H30.072V48.696C30.072 37.752 38.424 30.84 50.424 30.84C61.944 30.84 69.72 36.6 69.72 46.68C69.72 53.496 64.824 58.104 60.984 61.368ZM47.832 99.96C45.144 99.96 43.224 97.944 43.224 95.352C43.224 92.568 45.144 90.744 47.832 90.744C50.52 90.744 52.44 92.568 52.44 95.352C52.44 98.04 50.52 99.96 47.832 99.96Z" fill="#DBDBDB"/>
</svg>
