<svg width="343" height="283" viewBox="0 0 343 283" fill="none" xmlns="http://www.w3.org/2000/svg">
<path d="M165.632 17.6567L170.911 15.5931C211.357 -0.10393 255.616 -4.05519 298.324 4.21815L342.857 12.8752V264.533L298.35 255.876C255.633 247.598 211.365 251.549 170.911 267.251C127.086 284.289 78.8568 287.468 33.0693 276.336L27.5318 275.002C19.6695 273.094 12.6889 268.683 7.7002 262.473C2.71146 256.262 0.00100708 248.607 -0.000213623 240.726V55.3299C0.00149536 50.7438 1.07712 46.2184 3.14511 42.0969C5.2131 37.9753 8.21915 34.366 11.9352 31.5427C15.6512 28.7194 19.9795 26.7564 24.5918 25.8024C29.2042 24.8484 33.9793 24.9286 38.5551 26.0369C80.7697 36.2937 125.234 33.3778 165.632 17.6567Z" fill="#9D4EDD"/>
</svg>
