<svg width="33" height="28" viewBox="0 0 33 28" fill="none" xmlns="http://www.w3.org/2000/svg">
<path d="M4.58162 15.0072C2.03024 17.7086 0.829592 20.26 1.88016 21.7608C3.53105 24.6124 11.4854 23.2616 19.5897 18.7592C27.6941 14.2568 32.947 8.10344 31.146 5.25189C30.2455 3.75108 27.544 3.45092 24.0922 4.20132" fill="#DBDBDB"/>
<path d="M4.58162 15.0072C2.03024 17.7086 0.829592 20.26 1.88016 21.7608C3.53105 24.6124 11.4854 23.2616 19.5897 18.7592C27.6941 14.2568 32.947 8.10344 31.146 5.25189C30.2455 3.75108 27.544 3.45092 24.0922 4.20132" stroke="#5E63B6" stroke-width="3" stroke-linecap="round" stroke-linejoin="round"/>
<path d="M16.5115 25.513C23.1425 25.513 28.518 20.1375 28.518 13.5065C28.518 6.87549 23.1425 1.5 16.5115 1.5C9.88051 1.5 4.50502 6.87549 4.50502 13.5065C4.50502 20.1375 9.88051 25.513 16.5115 25.513Z" fill="#DBDBDB" stroke="#5E63B6" stroke-width="3" stroke-linecap="round" stroke-linejoin="round"/>
<path d="M1.88016 21.7609C3.53105 24.6124 11.4854 23.2617 19.5897 18.7593C27.6941 14.2568 32.947 8.1035 31.146 5.25195" stroke="#5E63B6" stroke-width="3" stroke-linecap="round" stroke-linejoin="round"/>
</svg>
