<svg width="40" height="43" viewBox="0 0 40 43" fill="none" xmlns="http://www.w3.org/2000/svg">
<path d="M20 0.5C21.8783 0.5 23.4581 1.14613 24.7686 2.44531C26.0788 3.74433 26.7285 5.30875 26.7285 7.16699C26.7285 7.57427 26.6913 7.9474 26.6191 8.28809C26.542 8.65211 26.4457 9.02644 26.3291 9.41016L26.1328 10.0557H34.7471L39.4229 42.5H0.577148L5.25293 10.0557H13.8662L13.6709 9.41113C13.5542 9.02558 13.458 8.65032 13.3809 8.28613C13.3086 7.94522 13.2715 7.5727 13.2715 7.16699C13.2715 5.30875 13.9212 3.74433 15.2314 2.44531C16.5419 1.14613 18.1217 0.500001 20 0.5ZM8.48145 14.2617L5.04688 38.1514L4.96484 38.7227H35.0352L34.9531 38.1514L31.5186 14.2617L31.457 13.833H8.54297L8.48145 14.2617ZM20 4.27734C19.1924 4.27734 18.4914 4.55441 17.9316 5.11133C17.3727 5.66737 17.0928 6.36301 17.0908 7.16504C17.0889 7.96911 17.37 8.66676 17.9326 9.22461C18.4951 9.78222 19.1958 10.0594 20.002 10.0557L20.001 10.0547C20.8081 10.0545 21.5094 9.77877 22.0703 9.22266C22.6317 8.66605 22.9111 7.96856 22.9092 7.16504C22.9072 6.36301 22.6273 5.66737 22.0684 5.11133C21.5086 4.55441 20.8076 4.27734 20 4.27734Z" fill="#DBDBDB" stroke="#DBDBDB"/>
</svg>
